<svg width="41" height="40" viewBox="0 0 41 40" fill="none" xmlns="http://www.w3.org/2000/svg">
<path d="M25.4375 14.9375L18.5 21.8813L15.5063 18.9375C14.9203 18.3516 13.9713 18.3516 13.385 18.9375C12.7987 19.5234 12.7991 20.4725 13.385 21.0588L17.385 25.0588C17.7312 25.3563 18.1125 25.5 18.5 25.5C18.8875 25.5 19.2675 25.3535 19.5606 25.0606L27.5606 17.0606C28.1466 16.4746 28.1466 15.5256 27.5606 14.9393C26.9747 14.3531 26.025 14.3562 25.4375 14.9375ZM20.5 4C11.6625 4 4.5 11.1625 4.5 20C4.5 28.8375 11.6625 36 20.5 36C29.3375 36 36.5 28.8375 36.5 20C36.5 11.1625 29.3375 4 20.5 4ZM20.5 33C13.3313 33 7.5 27.1681 7.5 20C7.5 12.8319 13.3313 7 20.5 7C27.6688 7 33.5 12.8319 33.5 20C33.5 27.1681 27.6688 33 20.5 33Z" fill="#222222"/>
</svg>
